<svg xmlns="http://www.w3.org/2000/svg" version="1.0" viewBox="0 0 957 957"><g fill="#0F0" stroke-width="0"><path d="M481.2 261.8c-1 2.3-1.2 41.8-1 189.6l.3 186.8 2.3 1.8c1.2 1 2.2 2.5 2.2 3.4 0 1 .8 1.6 2.1 1.6 1.2 0 2.3.8 2.6 1.9.3 1.1 1.3 2.1 2.4 2.4 1.1.3 1.9 1.4 1.9 2.6 0 1.4.6 2.1 2 2.1 1.3 0 2 .7 2 2 0 1.4.7 2 2.1 2 1.2 0 2.3.8 2.6 2 .3 1 1.4 2.2 2.4 2.5 1 .4 1.9 1.5 1.9 2.6 0 1.2.7 1.9 2 1.9s2 .7 2 1.9c0 1.3.8 2.1 2.3 2.3 1.4.2 2.3 1.1 2.5 2.5.2 1.5 1 2.3 2.3 2.3 1.2 0 1.9.7 1.9 2s.7 2 1.9 2c1.1 0 2.2.9 2.6 1.9.3 1.1 1.5 2.3 2.6 2.6 1 .4 1.9 1.5 1.9 2.6 0 1.2.7 1.9 2 1.9s2 .7 2 1.9c0 1 .9 2.1 2.1 2.4 1.1.3 2.3 1.4 2.6 2.5.3 1.1 1.5 2.3 2.6 2.6 1.2.3 26.5.6 56.2.6h54l36-36.2c19.8-20 36.7-37.8 37.7-39.6 1.6-3.2 1.7-15.8 2-180l.3-176.7-2.9-3.8-2.8-3.7h-41.4l-2.8 2.9-2.8 2.9.1 169.1v169.2l-11.2 11.2c-6.2 6.2-17 17.2-24.1 24.5L625.7 652h-58.9l-2.9-2.9c-1.6-1.6-2.9-3.4-2.9-4 0-1.6-4.9-6.1-6.6-6.1-.9 0-1.8-.9-2.1-1.9-.3-1.1-1.3-2.1-2.4-2.4-1-.3-1.9-1.2-1.9-2.1 0-1.9-4.3-6.3-6.7-6.8-1-.2-1.9-1.1-2.1-2.1-.4-2-4.8-6.7-6.2-6.7-.5 0-1.4-.9-2-1.9-.7-1.3-1-58-1-176.2V264.6l-2.7-2.8-2.7-2.8h-42.1l-1.3 2.8z"/><path d="M537.6 260.6c-.3.9-.6 79.6-.6 175V609l6.8 7.2c3.7 3.9 10.6 11.1 15.3 15.9l8.7 8.9h58.1l2.5-2.5c1.3-1.3 2.6-3.2 2.8-4.2.2-1 1.1-1.9 2.1-2.1 2.4-.5 6.7-4.9 6.7-6.8 0-.9.9-1.8 1.9-2.1 1.1-.3 2.1-1.3 2.4-2.4.3-1 1.2-1.9 2.1-1.9 2 0 6.6-4.6 6.6-6.6 0-.9.9-1.8 2-2.1 1.1-.3 2-.9 2-1.4 0-1.3 6.7-7.9 8-7.9.5 0 1-1.5 1-3.3 0-1.7.3-4.1.6-5.2.5-2 .1-2-37.9-1.7-33.5.3-38.5.1-39.7-1.2-1-1.3-1.2-34-1.1-164.4.1-89.6-.1-163.6-.5-164.6-.5-1.4-3.3-1.6-24.9-1.6-21.2 0-24.4.2-24.9 1.6zm197.1-1c-.4.4-.7 83.2-.7 184v183.2l-15.2 15.8c-8.4 8.6-19.3 19.9-24.3 24.9-4.9 5-10.2 10.4-11.6 12.1-5.3 6-16.9 16.4-18.4 16.4-.8 0-1.5.7-1.5 1.5 0 1.3 4.6 1.5 35.6 1.5 25.1 0 36.2-.3 37.7-1.2 2.2-1.1 9.4-8.3 15.2-15.2 1.7-2 3.6-3.6 4.3-3.6.6 0 1.2-.4 1.2-.8s6.3-7.2 14-15.2l14.1-14.4-.6-172.5c-.2-94.9-.8-182.5-1.2-194.6l-.8-22-23.6-.3c-12.9-.1-23.8.1-24.2.4z"/></g><path fill="#0F3" d="M723 262.4c0 .2.8 1 1.8 1.7 1.5 1.3 1.6 1.2.3-.4s-2.1-2.1-2.1-1.3zm10.1 1.2c0 1.1.3 1.4.6.6.3-.7.2-1.6-.1-1.9-.3-.4-.6.2-.5 1.3zM588.5 377c0 63 .1 88.7.2 57.3.2-31.5.2-83.1 0-114.5-.1-31.5-.2-5.8-.2 57.2zm194.9-95.5c0 10.4.2 14.6.3 9.2.2-5.4.2-13.9 0-19-.1-5.1-.3-.7-.3 9.8zm-50 34.5c0 5.2.1 7.4.3 4.7.2-2.6.2-6.8 0-9.5-.2-2.6-.3-.4-.3 4.8zm0 71.5c0 6 .1 8.4.3 5.2.2-3.2.2-8.1 0-11-.2-2.9-.3-.3-.3 5.8zm-7.2 77.5c0 1.4.2 1.9.5 1.2.2-.6.2-1.8 0-2.5-.3-.6-.5-.1-.5 1.3zm0 35c0 1.4.2 1.9.5 1.2.2-.6.2-1.8 0-2.5-.3-.6-.5-.1-.5 1.3zm-137.8 57c0 14.6.2 20.5.3 13.2.2-7.2.2-19.2 0-26.5-.1-7.2-.3-1.3-.3 13.3zm72.4 33.7c.6.2 1.8.2 2.5 0 .6-.3.1-.5-1.3-.5-1.4 0-1.9.2-1.2.5zm65.4 2.3c0 1.4.2 1.9.5 1.2.2-.6.2-1.8 0-2.5-.3-.6-.5-.1-.5 1.3zm-59.9 4c0 2.5.2 3.5.4 2.2.2-1.2.2-3.2 0-4.5-.2-1.2-.4-.2-.4 2.3zm6.7 4.8c0 .4-1.8 2.7-4 5-2.2 2.2-4 4.4-4 4.8 0 .4 2-1.4 4.5-4 4-4.3 5.4-6.6 4-6.6-.3 0-.5.4-.5.8zm-14 4.2c-1.4 1-2.3 2.1-2 2.3.3.2 1.6-.6 3-1.9 3-2.9 2.5-3.1-1-.4zm-5.5 5.1c-1.1 1.6-.1 1.9 1.3.3.7-.8.8-1.4.3-1.4s-1.3.5-1.6 1.1zm-9 9c-1.1 1.6-.1 1.9 1.3.3.7-.8.8-1.4.3-1.4s-1.3.5-1.6 1.1zM539.3 624c.2.8 1.2 1.6 2.3 1.7 1.3.2 1.5.1.4-.4-.8-.3-1.9-1.1-2.3-1.7-.6-.7-.7-.6-.4.4zm101.2.1c-1.1 1.6-.1 1.9 1.3.3.7-.8.8-1.4.3-1.4s-1.3.5-1.6 1.1zm-92.2 8.3c.1 1.1.9 2.1 1.7 2.3 1 .3 1.1.2.4-.4-.6-.4-1.4-1.5-1.7-2.3-.5-1.1-.6-.9-.4.4zm83.2.7c-1.1 1.6-.1 1.9 1.3.3.7-.8.8-1.4.3-1.4s-1.3.5-1.6 1.1zm-79.2 3.9c.2.8 1.2 1.6 2.3 1.7 1.3.2 1.5.1.4-.4-.8-.3-1.9-1.1-2.3-1.7-.6-.7-.7-.6-.4.4zm170.6.7c-1.3 1.6-1.2 1.7.4.4 1.6-1.3 2.1-2.1 1.3-2.1-.2 0-1 .8-1.7 1.7zm-240.5 3.2c2 2.2 2.6 2.5 2.6 1.3 0-.4-1-1.3-2.2-2.1-2.3-1.4-2.3-1.4-.4.8zm236.5.8c-1.3 1.6-1.2 1.7.4.4 1.6-1.3 2.1-2.1 1.3-2.1-.2 0-1 .8-1.7 1.7zm-230.7 4.7c.7.8 1.5 1.2 1.7 1.1.5-.6-1-2.5-2-2.5-.5 0-.4.6.3 1.4zm72.8-.4c0 .5.9 1.4 2 2 1.1.6 2 .9 2 .8 0-.2-.9-1.1-2-2.1-1.1-.9-2-1.3-2-.7zm-68.8 4.4c.7.8 1.5 1.2 1.7 1.1.5-.6-1-2.5-2-2.5-.5 0-.4.6.3 1.4zm290.7.3c-1.3 1.6-1.2 1.7.4.4.9-.7 1.7-1.5 1.7-1.7 0-.8-.8-.3-2.1 1.3zM496.5 655c.3.5.8 1 1.1 1 .2 0 .4-.5.4-1 0-.6-.5-1-1.1-1-.5 0-.7.4-.4 1zm4.7 4.4c.7.8 1.5 1.2 1.7 1.1.5-.6-1-2.5-2-2.5-.5 0-.4.6.3 1.4zm3.4 4c1 .8 2.1 1.2 2.4 1 .5-.6-2.1-2.4-3.4-2.4-.6 0-.1.6 1 1.4zm4.9 4.6c.3.5.8 1 1.1 1 .2 0 .4-.5.4-1 0-.6-.5-1-1.1-1-.5 0-.7.4-.4 1zm4.7 4.4c.7.8 1.5 1.2 1.7 1.1.5-.6-1-2.5-2-2.5-.5 0-.4.6.3 1.4zm245.1 2.2c-1.3 1.1-2.3 2.4-2.3 2.8 0 .4 1.2-.4 2.7-1.8 1.5-1.4 2.5-2.7 2.3-2.9-.3-.2-1.5.7-2.7 1.9zM518.5 677c.3.5.8 1 1.1 1 .2 0 .4-.5.4-1 0-.6-.5-1-1.1-1-.5 0-.7.4-.4 1zm233 5.6c-5.4 6.4-13 14-15 15.2-1.2.7-1.4 1.2-.6 1.2.7 0 4.1-2.8 7.5-6.3 8.5-8.8 12.8-13.7 11.9-13.7-.5 0-2.1 1.6-3.8 3.6zm-228.1-.5c1.8 2.6 5.6 5.3 5.6 4 0-.5-.9-1.2-1.9-1.6-1.1-.3-2.3-1.5-2.6-2.6-.4-1-1.1-1.9-1.6-1.9-.6 0-.4.9.5 2.1zm8.1 7.9c.3.5.8 1 1.1 1 .2 0 .4-.5.4-1 0-.6-.5-1-1.1-1-.5 0-.7.4-.4 1zm136.1 3.7c-.6 1.4-.5 1.5.5.6.7-.7 1-1.5.7-1.8-.3-.3-.9.2-1.2 1.2zm-131.5 1c.7 1.2 1.5 2 1.8 1.7.3-.2-.3-1.2-1.3-2.2-1.7-1.6-1.8-1.6-.5.5z"/><g fill="#333" stroke-width="0"><path d="M796 261c-11.8 1-10.9-.7-11.2 21-.2 10.3 0 18.6.5 18.3.4-.2.7-8.5.7-18.4V264l2.6-1c1.4-.6 5.2-1 8.4-1s6.2-.5 6.5-1c.3-.6.5-.9.3-.8-.2.1-3.7.4-7.8.8zm28.7.3c.3.5 7.2.7 15.4.6 10.8-.1 15.3.2 16.4 1.1 1.3 1.1 1.5 24.8 1.5 216.8 0 199.2-.1 215.7-1.7 217.4-.9 1-1.1 1.8-.5 1.8.6 0 1.6-.9 2.2-1.9.7-1.4 1-70.8 1-217.3 0-178.2-.2-215.7-1.3-217.2-1.2-1.7-3.1-1.9-17.4-2-8.9 0-15.9.3-15.6.7zm46.2.4c-1.3 1.6-1.2 1.7.4.4.9-.7 1.7-1.5 1.7-1.7 0-.8-.8-.3-2.1 1.3zm6.8-.5c.2.5 6.4.8 13.8.8s13.6-.3 13.8-.8c.3-.4-5.9-.7-13.8-.7s-14.1.3-13.8.7zm39.9.1c.3 1 .9 1.5 1.2 1.2.3-.3 0-1.1-.7-1.8-1-.9-1.1-.8-.5.6zm-877.9.4c-.3.5 16 .8 36.1.8h36.7l.3 216.9c.2 172.5-.1 217.2-1 218.4-1.1 1.3-1 1.4.2 1 1.3-.4 1.5-25.6 1.5-218.9V261.5l-36.7-.3c-20.2-.1-36.9.1-37.1.5zm88 0c-1 .9-.9 436.1.1 436.6.4.3.7-97.7.7-217.6V262.5l19.9-.3c16.6-.2 20.3 0 22.2 1.3 2.2 1.4 2.6 1.4 4.8 0 2.1-1.4 5.2-1.6 18.9-1.3 9.1.2 16 0 15.4-.4-2.1-1.3-32.5-.9-34.6.4-1.5.9-2.5.9-4.6 0-2.8-1.3-41.6-1.8-42.8-.5zm100.1 1.7c-.9 2.1-.7 2.9 1.6 5.6 1.4 1.7 2.6 2.7 2.6 2.1 0-.6-1-2-2.2-3.1-1.8-1.6-2-2.4-1.2-3.8 1-1.5 3.5-1.7 25.5-1.7 16 0 25.5.4 27.7 1.2 1.8.6 3 .8 2.7.2-.4-.5-1.5-.9-2.5-.9s-2.2-.5-2.5-1c-.4-.6-10-1-25.6-1H229l-1.2 2.4zm166.8-1.4c20.1.4 22.4.7 24.3 2.4 1.7 1.6 2.1 1.7 1.6.4-1.2-3.1-6.3-3.8-27.4-3.6l-20.6.2 22.1.6zm38 1.1-2.6 2v430.8l2.2 1.5c3.3 2.4 4.5 1.9 1.4-.5l-2.6-2V266.3l2.3-2.1c2.2-2.1 3.2-2.2 22-2.2 10.8 0 19.8.1 19.9.2.2.2.5 84.7.8 187.8l.5 187.5.3-186.3c.1-127-.1-186.9-.8-188.3-1-1.8-2.3-1.9-20.9-1.9-18.5 0-20 .1-22.5 2.1zm-218.9 2.6c1 1.5 2.6 3.6 3.6 4.5.9 1 1.7 2.2 1.7 2.7 0 .4 1.1 2 2.5 3.5s2.5 2.4 2.5 2c0-.3-1.1-1.9-2.5-3.6-1.4-1.6-2.5-3.5-2.5-4.3 0-.7-.7-1.5-1.5-1.9-.8-.3-2-1.7-2.7-3.1-.6-1.4-1.5-2.5-2-2.5s0 1.2.9 2.7zm72.7 2.3c.9 1.3 1.6 3.2 1.6 4.2 0 .9 1.4 3.1 3 4.8 1.7 1.7 3 2.7 3 2.2s-1.1-1.9-2.5-3.2c-1.4-1.3-2.5-3.1-2.5-4.1 0-.9-.9-2.7-2.1-4l-2.1-2.4 1.6 2.5zm-54.3 6.1c-.1.9.9 2.4 2.2 3.5 2.2 1.9 2.2 1.9.6-.1-.9-1.1-1.9-2.7-2.2-3.5-.5-1.3-.6-1.3-.6.1zm-6.9 7.4c.4.6 1.2 2.2 1.7 3.6.6 1.5 1 1.8 1 .8.1-.9-.7-2.5-1.6-3.6-1-1-1.5-1.4-1.1-.8zm10.8-.7c0 .4.9 1.3 2 2s2 2 2 3.1c0 1 .9 2.6 2 3.6s2.9 3.8 4.1 6.2c1.2 2.4 3.2 5.7 4.5 7.2 1.2 1.5 2.6 3.9 2.9 5.3.4 1.5 1.7 3.5 2.8 4.5 2.2 1.8 2.2 1.8.6-.2-.9-1.1-2.1-3.5-2.8-5.4-.6-1.8-1.7-3.9-2.5-4.5-.8-.6-2.8-3.9-4.5-7.2-1.7-3.4-3.7-6.4-4.5-6.7-.7-.3-1.6-1.8-1.9-3.4-.5-2.5-4.7-6.5-4.7-4.5zm58 .5c0 1.1 5.2 9.6 6.5 10.7.8.7 1.5 1.8 1.5 2.6 0 1.5 4.1 5.6 4.9 4.9.2-.3-.5-1.2-1.7-2.1-1.2-.8-2.2-2.1-2.2-2.8 0-.7-1.3-3-3-5.1-1.6-2.1-3-4.3-3-5 0-.7-.7-1.8-1.5-2.5s-1.5-1-1.5-.7zm-64.3 8.8c1.2 1.3 3.4 4.8 4.8 7.8 1.5 2.9 3.6 6.2 4.6 7.2 1 1 1.9 2.5 1.9 3.2 0 .7 1.1 2.3 2.5 3.5 1.4 1.2 2.5 1.8 2.5 1.2 0-.5-.9-1.4-1.9-2-1.1-.5-2.2-2.3-2.6-3.9-.3-1.6-1.2-3.2-2-3.4-.7-.3-2.7-3.4-4.4-6.9-1.7-3.5-4.2-7-5.4-7.7l-2.2-1.4 2.2 2.4zm78.7 12.9c.9 1.3 1.6 3.2 1.6 4.2 0 .9 1.4 3.1 3 4.8 1.7 1.7 3 2.7 3 2.2s-1.1-1.9-2.5-3.2c-1.4-1.3-2.5-3.1-2.5-4.1 0-.9-.9-2.7-2.1-4l-2.1-2.4 1.6 2.5z"/><path d="M51 306.9c6.9.3 13.1 1 13.9 1.5.9.6 1.2 2.3.9 5.8-.3 2.9-.2 4.4.3 3.6.5-.7.9-3 .9-5 0-5.9-2.2-6.8-16.5-6.6l-12 .2 12.5.5zm736 .2c1.4.4 6.9.7 12.2.8 8.2.1 9.9.4 10.7 1.8.5 1.1.9 78.3 1 193.8l.1 192 2.1 1.7c3.1 2.6 4.4 2.2 1.5-.5l-2.6-2.2-.1-191.8c-.1-175.8-.3-191.9-1.8-193.7-1.4-1.6-3.4-1.9-13.6-2.2-6.6-.2-10.9-.1-9.5.3zM247.4 317c.9 1.3 1.6 3.2 1.6 4.2s.9 2.6 2 3.6c1.1.9 3 3.7 4.2 6.1 1.2 2.5 2.4 3.9 2.6 3.2.2-.7-.3-2-1.2-3-.9-1-1.6-2.3-1.6-2.9 0-.7-1.1-2.2-2.5-3.4-1.4-1.2-2.5-2.9-2.5-3.9 0-.9-.9-2.7-2.1-4l-2.1-2.4 1.6 2.5zm10.6-1.1c0 .6.5 1.1 1.1 1.1.5 0 1.6 1.5 2.4 3.3.8 1.9 2.1 3.9 2.9 4.6.8.7 2.5 3.3 3.7 5.7 1.2 2.5 2.3 4.3 2.5 4.1.7-.7-4.6-10.7-5.6-10.7-.6 0-1.6-1.5-2.3-3.3-1.5-3.4-4.7-6.8-4.7-4.8zm58.1.6c.3.5 1.3 2.7 2.2 4.7.9 2.1 2.7 4.2 3.9 4.8l2.3 1.1-2.2-1.8c-1.2-1-2.5-3-2.8-4.5-.4-1.5-1.4-3.3-2.3-4-.8-.7-1.3-.9-1.1-.3zm8 12.6c-.1.8 1 2.5 2.4 3.7 1.4 1.2 2.5 1.7 2.5 1.2 0-.6-.7-1.3-1.6-1.7-.9-.3-2-1.5-2.4-2.7-.6-1.4-.9-1.6-.9-.5zm-66.1 7.8c0 .6.9 1.5 2 2.1 1.1.6 2.2 2.1 2.6 3.4.3 1.3 1.7 3.5 3 4.7 1.7 1.6 2.3 1.8 1.9.7-.4-.9-1.3-1.9-2-2.2-.7-.2-1.6-1.7-2-3.3-.6-2.7-5.5-7.5-5.5-5.4zm13-.1c0 .4.9 1.3 1.9 1.9 1.1.7 2.2 2.5 2.6 4.2.3 1.6 1.4 3.6 2.3 4.3 1.5 1.1 1.5 1.1.6-.2-.6-.8-1.6-3.1-2.3-5-1-3.1-5.1-7.3-5.1-5.2zm60.4 2.7c1.2 5.1 1.7 6.1 3.8 7.4l2.3 1.4-2.2-2.5c-1.3-1.3-2.3-3.1-2.3-3.9 0-.8-.5-2.1-1.1-2.9-.8-1.2-.9-1.1-.5.5zm-51.8 10.7c.3 1 1 1.8 1.6 1.8.5 0 1.5 1.5 2.3 3.2.8 1.9 1.4 2.5 1.5 1.6 0-1-1.4-3.2-3-5-1.7-1.8-2.7-2.5-2.4-1.6zm57.4-.3c0 .6.5 1.3 1 1.6.6.4 1.7 2.1 2.4 4 .8 1.8 2.4 4.3 3.5 5.4 1.2 1.2 2.1 2.7 2.1 3.4 0 .7 1.1 2.3 2.5 3.5 1.4 1.2 2.5 1.8 2.5 1.2 0-.5-.8-1.4-1.9-1.9-1-.6-2.2-2.2-2.5-3.5-.3-1.4-1.7-3.6-3.1-5-1.4-1.4-2.5-3.2-2.5-4.1 0-.8-.9-2.4-2-3.5s-2-1.6-2-1.1zm-68.4 1.1c.6.8 1.6 3.1 2.3 5 1 3.1 5.1 7.3 5.1 5.2 0-.4-.9-1.3-1.9-1.9-1.1-.7-2.2-2.5-2.6-4.2-.3-1.6-1.4-3.6-2.3-4.3-1.5-1.1-1.5-1.1-.6.2zm16.4 8.4c0 .2.8 1 1.8 1.7 1.5 1.3 1.6 1.2.3-.4s-2.1-2.1-2.1-1.3zm-9 4.2c0 .5.9 2.2 2 3.9 1.1 1.6 2 2.4 2 1.7 0-.8-.9-2.5-2-3.9s-2-2.2-2-1.7zm12 0c0 .3 1.1 1.9 2.5 3.6 1.4 1.6 2.5 3.5 2.5 4.1 0 .7.9 1.8 1.9 2.4 1.1.7 2.2 2.5 2.6 4.2.3 1.6 1.4 3.6 2.3 4.3 1.5 1.1 1.5 1.1.6-.2-.6-.8-1.7-3.2-2.3-5.3-.7-2-1.7-3.7-2.2-3.7-.4 0-1.6-1.5-2.5-3.3-1.6-3.1-5.4-7.4-5.4-6.1zm-8 8.2c0 .6.9 1.6 2 2.2 1.1.6 2 1.7 2 2.5 0 1.7 4.9 7.5 5 5.7 0-.6-.5-1.2-1.1-1.2-.5 0-1.6-1.5-2.4-3.3-1.4-3.4-5.5-7.8-5.5-5.9zm71-.4c0 .2.8 1 1.8 1.7 1.5 1.3 1.6 1.2.3-.4s-2.1-2.1-2.1-1.3zm-126.4 2.5c-.4.6-.3 1 .2.9 1.1-.3 6.2 6.6 6.2 8.3 0 .5 1.1 1.9 2.5 3.1 1.4 1.2 2.5 2.9 2.5 3.9 0 .9.9 2.7 2.1 4l2.1 2.4-1.6-2.5c-.9-1.3-1.6-3.2-1.6-4.1 0-.9-.9-2.4-2.1-3.5-1.1-1-2.7-3.2-3.4-4.9-2.1-4.6-6-9.1-6.9-7.6zm129.5 2.8c-.1 2.2 3.7 6.8 4.8 5.8.2-.3-.5-1.2-1.6-2-1.2-.8-2.4-2.5-2.6-3.8l-.4-2.2-.2 2.2zm-130.8 2.8c0 2.2.2 3 .4 1.7.2-1.2.2-3 0-4-.3-.9-.5.1-.4 2.3zm66.8 6c.9 1.1 2.2 3.6 2.8 5.5 1 3.1 5.1 7.3 5.1 5.2 0-.4-.9-1.3-1.9-1.9-1.1-.7-2.2-2.5-2.6-4.1-.3-1.7-1.6-3.8-2.8-4.8-2.2-1.9-2.2-1.9-.6.1zm10.9-1.4c0 .3 1.1 1.8 2.5 3.3 1.4 1.5 2.5 3.5 2.5 4.5s1 2.6 2.3 3.7c2.2 1.9 2.2 1.9.5-.2-1-1.1-1.8-2.8-1.8-3.7 0-1.5-5.9-9-6-7.6zm58 .6c0 .6.7 1.6 1.5 2.3.8.7 1.5 1.8 1.5 2.5 0 2.4 6.2 10.5 8.1 10.5 2.3 0 3.6-4.3 2.1-7.3-.9-1.8-1-1.6-.5 1.4.8 5.3-1.3 6-4.8 1.8-1.6-1.9-3.2-4.3-3.5-5.4-.8-2.5-4.4-7.2-4.4-5.8zm-119 13.2c0 .6.9 1.5 1.9 2 1 .6 2.4 2.8 3 4.8l1.1 3.8-.5-3.5c-.5-3.1-5.5-9.6-5.5-7.1zm58 .4c0 1.4 5.2 10.7 6 10.7.6 0 1.6 1.5 2.3 3.2 1.5 3.5 4.7 6.9 4.7 4.9 0-.6-.5-1.1-1.1-1.1-.5 0-1.6-1.5-2.4-3.3-.7-1.8-2.3-4.1-3.4-5.1-1.2-1.1-2.1-2.6-2.1-3.3 0-.8-.9-2.6-2-4s-2-2.3-2-2zm12 .2c0 .4 1.1 2 2.5 3.7 1.4 1.6 2.5 3.5 2.5 4.1 0 .7.9 1.8 2 2.5s2 2.1 2 3.1.9 2.9 2.1 4.2l2.1 2.4-1.6-2.5c-.9-1.3-1.6-3.2-1.6-4.1 0-.9-1.1-2.8-2.5-4.3s-2.5-3.1-2.5-3.6-1.1-2.1-2.5-3.6-2.5-2.4-2.5-1.9zm-61 14c0 .7 2.2 3.6 7 9.3 2.7 3.3 2.5 1.7-.2-1.9-3.9-5-6.8-8.2-6.8-7.4zm-13.3 3.1c-.4.4-.7 63.8-.7 140.9 0 107.6.3 140.4 1.2 141.3 1.9 1.9 3.3 1.4 1.5-.6-1.6-1.7-1.7-13-1.7-141.5 0-137 0-139.7 1.9-139.7 1.1 0 2.2.5 2.4 1 .3.6.4.5.3-.2-.3-1.4-3.8-2.3-4.9-1.2z"/><path d="M242.1 420.5c.9 1.1 2.2 3.6 2.8 5.5 1 3.1 5.1 7.3 5.1 5.2 0-.4-.9-1.3-1.9-1.9-1.1-.7-2.2-2.5-2.6-4.1-.3-1.7-1.6-3.8-2.8-4.8-2.2-1.9-2.2-1.9-.6.1zm70 0c.9 1.1 1.9 2.7 2.2 3.5.5 1.3.6 1.3.6-.1.1-.9-.9-2.4-2.1-3.5-2.3-1.9-2.3-1.9-.7.1zm10.9-1.4c0 .3 1.1 1.8 2.5 3.3 1.4 1.5 2.5 3.5 2.5 4.5s1 2.6 2.3 3.7c2.2 1.9 2.2 1.9.5-.2-1-1.1-1.8-2.8-1.8-3.7 0-1.5-5.9-9-6-7.6zm-64.9 6.7c-.1.8.8 2.5 1.9 3.9 1.1 1.4 2 2.1 2 1.5 0-.6-.5-1.4-1.1-1.7-.6-.4-1.4-1.7-1.9-2.9-.5-1.1-.9-1.5-.9-.8zm56.9 1c0 .6.9 1.9 1.9 2.9 1 1 3.3 4.6 5 7.9 1.7 3.4 3.8 6.5 4.6 6.8.8.3 1.5 1.4 1.5 2.5 0 2 3.9 6.5 4.9 5.6.2-.3-.5-1.2-1.7-2.1-1.2-.8-2.2-2.3-2.2-3.3s-.9-2.6-2-3.6-2.9-3.7-4-6.1c-2.4-4.8-8-12.3-8-10.6zm-65 6.4c0 1.5 5.2 10.8 6 10.8.6 0 1.6 1.5 2.3 3.2 1.5 3.5 4.7 6.9 4.7 4.9 0-.6-.5-1.1-1.1-1.1-.5 0-1.6-1.5-2.4-3.3-.7-1.8-2.3-4.1-3.4-5.1-1.2-1.1-2.1-2.4-2.1-3 0-.6-.9-2.5-2-4.1-1.1-1.7-2-2.7-2-2.3zm13.7 1.9c1.2 1.3 2.5 3.7 2.8 5.2.4 1.5 1 2.6 1.2 2.3 1.1-1-1.8-7.2-3.9-8.5l-2.3-1.4 2.2 2.4zm68.3-1.4c0 .5.9 1.8 2 2.8 1.1 1 2 2.4 2 3.2 0 .7 1.1 2.3 2.5 3.5 1.4 1.2 2.5 2.9 2.5 3.9 0 .9.9 2.7 2.1 4l2.1 2.4-1.6-2.5c-.9-1.3-1.6-3.2-1.6-4.2s-1.1-2.8-2.5-4c-1.4-1.2-2.5-2.7-2.5-3.4 0-.7-1.1-2.5-2.5-4s-2.5-2.2-2.5-1.7zm-61 13.6c0 .4.9 1.6 2 2.7s2 1.6 2 1.2c0-.5-.9-1.7-2-2.7-1.1-1-2-1.5-2-1.2zm4 6.5c0 .5 1.1 1.9 2.5 3.2 1.4 1.3 2.5 3 2.5 3.8 0 .7.9 2.5 2 3.9s2 2.1 2 1.6c0-.6-.7-1.6-1.5-2.3-.8-.7-1.5-2.1-1.5-3.1s-1.3-3.2-3-4.9c-1.6-1.7-3-2.7-3-2.2zm-10.9 1.7c.9 1.1 1.9 2.7 2.2 3.5.5 1.3.6 1.3.6-.1.1-.9-.9-2.4-2.1-3.5-2.3-1.9-2.3-1.9-.7.1zm81.4-.3c.4.9 1.3 1.9 2 2.2.7.2 1.6 1.8 2 3.4.3 1.7 1.6 3.8 2.8 4.8 2.2 1.9 2.2 1.9.5-.1-.9-1.1-1.9-3.2-2.3-4.7-.4-1.4-1.8-3.7-3.1-4.9-1.7-1.6-2.3-1.8-1.9-.7zm-10.4 2.5c.7 1.2 1.5 2 1.8 1.7.3-.2-.3-1.2-1.3-2.2-1.7-1.6-1.8-1.6-.5.5zm-68.1 3.9c0 1.2 1.1 2.6 3.5 4.4 1.5 1.1 1.4.7-.5-1.5-1.4-1.7-2.6-3.2-2.7-3.4-.2-.2-.3 0-.3.5zm70 0c0 1.2 1.1 2.6 3.5 4.4 1.5 1.1 1.4.7-.5-1.5-1.4-1.7-2.6-3.2-2.7-3.4-.2-.2-.3 0-.3.5zm-65 6.6c0 1.9 5.2 10.7 6.7 11.2 1.4.6 1.2.2-.5-1.7-1.2-1.3-2.2-2.7-2.2-3.3 0-.5-.9-2.3-2-3.9-1.1-1.7-2-2.7-2-2.3zm13.7 1.9c1.2 1.3 2.5 3.7 2.8 5.2.4 1.5 1 2.6 1.2 2.3 1.1-1-1.8-7.2-3.9-8.5l-2.3-1.4 2.2 2.4zm68.3-1.4c0 .5.9 1.8 2 2.8 1.1 1 2 2.4 2 3.2 0 .7 1.1 2.3 2.5 3.5 1.4 1.2 2.5 2.9 2.5 3.9 0 .9.9 2.7 2.1 4l2.1 2.4-1.6-2.5c-.9-1.3-1.6-3.2-1.6-4.2s-1.1-2.8-2.5-4c-1.4-1.2-2.5-2.7-2.5-3.4 0-.7-1.1-2.5-2.5-4s-2.5-2.2-2.5-1.7zm-12 1.1c0 .5.7 1.5 1.5 2.2.8.7 1.5 1.8 1.5 2.5 0 .8 1.1 2.6 2.4 4.2 1.3 1.5 2.6 3.7 3 4.8.6 2.1 4.6 5.2 4.6 3.6 0-.5-.7-1.2-1.5-1.5-.9-.3-2.1-1.9-2.6-3.6-.6-1.6-1.5-3-2-3s-1.8-2-2.9-4.4c-1.7-4.1-4-6.8-4-4.8zm-61.2 118.3.3 107.4-2.2 1.7c-1.2 1-1.7 1.8-1.1 1.8.6 0 1.8-.7 2.6-1.6 1.4-1.4 1.6-12.3 1.5-105.2 0-57-.3-105.5-.7-107.6-.4-2.1-.6 44.4-.4 103.5zM293 482.3c0 .4.9 1.6 2 2.7s2 1.6 2 1.2c0-.5-.9-1.7-2-2.7-1.1-1-2-1.5-2-1.2zm4 6.5c0 .5 1.1 1.9 2.5 3.2 1.4 1.3 2.5 3.1 2.5 4.1 0 .9.9 2.7 2.1 4l2.1 2.4-1.6-2.5c-.9-1.3-1.6-3.2-1.6-4.2 0-.9-1.3-3.1-3-4.8-1.6-1.7-3-2.7-3-2.2zm58 .9c0 .6.7 1.6 1.5 2.3.8.7 1.5 2.1 1.5 3.1s1.4 3.2 3 4.9c1.7 1.7 3 2.7 3 2.2s-1.1-1.9-2.5-3.2c-1.4-1.3-2.5-3-2.5-3.8 0-.7-.9-2.5-2-3.9s-2-2.1-2-1.6zm12 .3c0 .5.9 1.4 1.9 2 1.1.5 2.2 2.3 2.6 3.9.3 1.6 1.6 3.7 2.8 4.7 2.2 1.9 2.2 1.9.5-.1-.9-1.1-1.9-3.2-2.3-4.6-.6-2.6-5.5-7.8-5.5-5.9zm-61 13.8c0 .4.9 1.3 1.9 1.9 1.1.7 2.2 2.6 2.6 4.3.4 1.7.9 2.9 1.2 2.6 1-1-1.7-7.1-3.7-8.4-1.1-.7-2-.9-2-.4zm70-.1c0 .5.9 1.8 2 2.8 1.1 1 2 2.4 2 3.2 0 .7 1.1 2.3 2.5 3.5 1.4 1.2 2.5 2.9 2.5 3.9 0 .9.9 2.7 2.1 4l2.1 2.4-1.6-2.7c-.9-1.5-1.6-3.4-1.6-4.3 0-.8-1.1-2.5-2.5-3.7-1.4-1.2-2.5-2.7-2.5-3.4 0-.7-1.1-2.5-2.5-4s-2.5-2.2-2.5-1.7zm-11.9.8c.3.5 1.3 2.8 2.3 5 1 2.2 2.7 4.6 3.7 5.3 1 .7 1.9 1.9 1.9 2.6 0 .7 1.1 2.5 2.5 4s2.5 2.3 2.5 1.8c0-.5-.9-1.7-2-2.7-1.1-1-2-2.4-2-3.2 0-.7-1.1-2.3-2.5-3.4-1.3-1.2-2.7-3.4-3-5-.4-1.5-1.3-3.4-2.2-4.1-.9-.7-1.4-.9-1.2-.3zm-47.3 15.3c.9 1 1.9 1.7 2.1 1.6.6-.5-2-3.4-3-3.4-.5 0-.1.8.9 1.8zm2.2 4c0 .5 1.1 1.9 2.5 3.2 1.4 1.3 2.5 3 2.5 3.8 0 .7.9 2.5 2 3.9s2 2.1 2 1.6c0-.6-.7-1.6-1.5-2.3-.8-.7-1.5-2.1-1.5-3.1s-1.3-3.2-3-4.9c-1.6-1.7-3-2.7-3-2.2zm70 1.2c0 .5.9 1.4 1.9 2 1.1.5 2.2 2.3 2.6 3.9.3 1.6 1.6 3.7 2.8 4.7 2.2 1.9 2.2 1.9.5-.1-.9-1.1-1.9-3.2-2.3-4.6-.6-2.6-5.5-7.8-5.5-5.9zm-10.7 1.6c.9 1.1 1.7 2.7 1.7 3.6 0 .8 1.4 3.2 3 5.3 1.7 2.1 4.1 6 5.3 8.7 1.2 2.6 2.5 4.8 2.9 4.8.4 0 1.5 1.4 2.3 3.1 1.6 2.9 5.5 7.5 5.5 6.3 0-.3-1.1-1.9-2.5-3.6-1.4-1.6-2.5-3.5-2.5-4.3 0-.7-.6-1.5-1.3-1.8-.8-.3-2.6-3-4-6-1.5-3-3.8-6.6-5.2-8.1-1.4-1.5-2.5-3.5-2.5-4.5s-1-2.6-2.2-3.7c-2.3-1.9-2.3-1.9-.5.2zM328 538.8c0 .4.9 1.3 2 2s2 2.2 2 3.4c0 1.2.3 1.9.6 1.5 1.1-1.1-.5-5.2-2.6-6.5-1.1-.7-2-.9-2-.4zm70-.1c0 .5.9 1.8 2 2.8 1.1 1 2 2.4 2 3.1 0 1.5 4.1 5.6 4.9 4.9.2-.3-.5-1.2-1.7-2.1-1.2-.8-2.2-2.1-2.2-2.9 0-.8-1.1-2.6-2.5-4.1-1.4-1.5-2.5-2.2-2.5-1.7zm-65 8.7c0 .2.8 1 1.8 1.7 1.5 1.3 1.6 1.2.3-.4s-2.1-2.1-2.1-1.3zm74 4.7c0 .8 1 2.5 2.1 3.9l2 2.5-1.7-3.5c-2-4.3-2.4-4.7-2.4-2.9zm-68.7 1.9c.9.6 1.7 1.7 1.7 2.4s1.4 3 3 5.1c1.7 2.1 3 4.3 3 5 0 .7.9 2.3 1.9 3.6 1.6 1.9 1.4 1.2-.6-3.1-1.4-3-3.1-5.8-3.6-6.2-.6-.3-1.8-2.1-2.6-3.9-.9-1.8-2.3-3.4-3.1-3.6-1-.3-.9-.1.3.7zm72.7 5.9c0 .6.9 1.5 2 2.1 1.2.6 2.5 2.2 3 3.6 1 2.5 2.4 3.1 3.5 1.4.3-.5 0-.7-.8-.4-1 .3-1.7-.4-2.1-2-.3-1.4-1-2.6-1.5-2.6s-1.7-.7-2.5-1.6c-.9-.8-1.6-1.1-1.6-.5zm-10.8 1.6c.4.6 1.2 2.2 1.7 3.6.6 1.5 1 1.8 1 .8.1-.9-.7-2.5-1.6-3.6-1-1-1.5-1.4-1.1-.8zm4.5 8.6c1.2 1.3 3.4 4.8 4.8 7.8 1.5 2.9 3.6 6.2 4.6 7.2 1 1 1.9 2.5 1.9 3.2 0 .8 1.1 2.4 2.6 3.8 1.7 1.6 2.3 1.8 1.9.7-.4-.9-1.3-1.9-2-2.2-.7-.2-1.6-1.8-2-3.4-.3-1.7-1.2-3.3-2-3.5-.7-.3-2.7-3.4-4.4-6.9-1.7-3.5-4.2-7-5.4-7.7l-2.2-1.4 2.2 2.4zm-54.7 3.7c0 .4.9 1.3 2 2s2 2.2 2 3.4c0 1.2.3 1.9.6 1.5 1.1-1.1-.5-5.2-2.6-6.5-1.1-.7-2-.9-2-.4zm5 8.6c0 .2.8 1 1.8 1.7 1.5 1.3 1.6 1.2.3-.4s-2.1-2.1-2.1-1.3zm3 4.6c0 .5.8 1.4 1.9 1.9 1 .6 2.2 2.3 2.6 3.8.3 1.5 1.5 3.3 2.6 4.1 1 .7 1.9 1.9 1.9 2.6 0 .6 1.1 2.8 2.5 4.7 1.8 2.3 2.4 4.2 2.1 5.9-.5 2.5-.5 2.5.6.3.9-1.9.7-2.9-1.6-6.1-1.4-2.1-2.6-4.3-2.6-4.9 0-.5-1.1-2.2-2.5-3.7s-2.5-3.3-2.5-4c0-.7-1.1-2.2-2.5-3.4-1.4-1.2-2.5-1.8-2.5-1.2zM65 694.6c0 1.7 2.1 3.2 5.5 3.8 2.9.6 2.9.6-.3-.7-1.8-.7-3.7-1.9-4.2-2.7-.5-.8-1-1-1-.4zm354.5 1.3c-.3.5-1.9 1.2-3.6 1.6-4 .9-3.2 1.7.9.9 1.7-.3 3.3-1.2 3.6-2 .6-1.6 0-1.9-.9-.5zm-197 1c-.6.5-1.9 1.1-3 1.4-1.9.4-1.9.5.1.6 1.2 0 2.7-.6 3.4-1.4 1.4-1.6 1-2-.5-.6zm-53.2.9c-.6.4 1.1.7 3.7.7s4.3-.3 3.7-.7c-.7-.4-2.3-.8-3.7-.8-1.4 0-3 .4-3.7.8zm701.4.3c.7.7 1.5 1 1.8.7.3-.3-.2-.9-1.2-1.2-1.4-.6-1.5-.5-.6.5z"/></g><path fill="#033" d="M871.7 261.8c-1.6 1.7-1.7 18.3-1.7 218.5 0 119.1.3 216.8.8 217 .4.3.6-97.2.4-216.6-.2-201-.1-217.2 1.5-218.9.9-1 1.4-1.8 1.1-1.8-.3 0-1.2.8-2.1 1.8zm-500.2 1.4c-.3.7-.4 29.9-.3 64.8l.3 63.5.3-64.2c.1-50.2.5-64.2 1.5-64.6.9-.4.9-.6-.1-.6-.7-.1-1.5.5-1.7 1.1zm-87.5 2.7c.5 1.1 1.5 2.3 2.1 2.7.6.3.3-.5-.6-2-2-3-3-3.5-1.5-.7zm135.8 148.6c.2 134.9.1 149.5-1.4 150.9-.8.9-1.1 1.6-.5 1.6.6 0 1.5-.9 2.1-1.9 1.2-2.3 1.5-298.7.3-299.4-.5-.3-.7 66.7-.5 148.8zM234.6 277.2c1 1.4 2.1 2.4 2.3 2.2.3-.3-.6-1.5-1.8-2.7l-2.4-2.2 1.9 2.7zm-11.6 2.5c0 .6.8 1.7 1.8 2.4 1.6 1.3 1.6 1.3.2-.6-.8-1.1-1.6-2.2-1.7-2.4-.2-.2-.3 0-.3.6zm4 8c0 .6.8 1.7 1.8 2.4 1.6 1.3 1.6 1.3.2-.6-.8-1.1-1.6-2.2-1.7-2.4-.2-.2-.3 0-.3.6zm79 13c0 .6.8 1.7 1.8 2.4 1.6 1.3 1.6 1.3.2-.6-.8-1.1-1.6-2.2-1.7-2.4-.2-.2-.3 0-.3.6zm478.7 0c-.2.5 0 1.9.4 3.3.7 2.3.7 2.2.6-.8-.1-3.3-.3-3.7-1-2.5zm-528.1 11.5c1 1.4 2.1 2.4 2.3 2.2.3-.3-.6-1.5-1.8-2.7l-2.4-2.2 1.9 2.7zm-11.6 2.5c0 .6.8 1.7 1.8 2.4 1.6 1.3 1.6 1.3.2-.6-.8-1.1-1.6-2.2-1.7-2.4-.2-.2-.3 0-.3.6zM65.5 506.5c0 103.4.1 145.8.2 94.3.2-51.5.2-136.1 0-188-.1-51.9-.2-9.7-.2 93.7zm257.1-179.2c.3 1 .9 1.5 1.2 1.2.3-.3 0-1.1-.7-1.8-1-.9-1.1-.8-.5.6zm5.7 9.1c.1 1.1.9 2.1 1.7 2.3 1 .3 1.1.2.4-.4-.6-.4-1.4-1.5-1.7-2.3-.5-1.1-.6-.9-.4.4zm-49.8 11c1 1.4 1.9 2.6 2.2 2.6.7 0-1.7-3.9-2.8-4.6-.6-.3-.3.5.6 2zm56.6.3c.7 1.2 1.5 2 1.8 1.7.3-.2-.3-1.2-1.3-2.2-1.7-1.6-1.8-1.6-.5.5zm-68.1 2.2c.5 1.1 1.5 2.3 2.1 2.7.6.3.3-.5-.6-2-2-3-3-3.5-1.5-.7zm18 7.6c0 .4.9 1.8 2 3.2 1.1 1.4 2 2.2 2 1.8 0-.4-.9-1.8-2-3.2-1.1-1.4-2-2.2-2-1.8zm65 13c0 .4.9 1.8 2 3.2 1.1 1.4 2 2.2 2 1.8 0-.4-.9-1.8-2-3.2-1.1-1.4-2-2.2-2-1.8zm-126.5 3.6c-.4.6-.5 1.2-.2 1.5.2.3.7-.2 1-1.1.7-1.7.1-2-.8-.4zm77 8.3c1 1.4 1.9 2.6 2.2 2.6.7 0-1.7-3.9-2.8-4.6-.6-.3-.3.5.6 2zm-77.3 156.7c-.1 102.1-.5 156.9-1.2 157.7-.6.7-.3.7.5-.1 1.3-1.1 1.5-19.7 1.2-157.7l-.2-156.5-.3 156.6zM288 383.7c0 .5 1 1.8 2.3 2.9l2.2 1.9-2-2.5c-1.1-1.4-2.1-2.7-2.2-2.9-.2-.2-.3 0-.3.6zm-54 1.7c0 .2.8 1 1.8 1.7 1.5 1.3 1.6 1.2.3-.4s-2.1-2.1-2.1-1.3zm125 1c0 .2.8 1 1.8 1.7 1.5 1.3 1.6 1.2.3-.4s-2.1-2.1-2.1-1.3zm-119.9 8.3c.7 1.2 1.5 2 1.8 1.7.3-.2-.3-1.2-1.3-2.2-1.7-1.6-1.8-1.6-.5.5zm69.5.5c1 1.4 2.1 2.4 2.3 2.2.3-.3-.6-1.5-1.8-2.7l-2.4-2.2 1.9 2.7zm-61.3 12.9c.9.5 1.7 1.8 1.8 2.7 0 1.1.2 1.2.6.4.6-1.5-1.4-4.2-3.1-4.2-.6 0-.3.5.7 1.1zm75.2 9.3c1 1.4 1.9 2.6 2.2 2.6.7 0-1.7-3.9-2.8-4.6-.6-.3-.3.5.6 2zm-82.5 1.3c0 .5 1 1.8 2.3 2.9l2.2 1.9-2-2.5c-1.1-1.4-2.1-2.7-2.2-2.9-.2-.2-.3 0-.3.6zm70 0c0 .5 1 1.8 2.3 2.9l2.2 1.9-2-2.5c-1.1-1.4-2.1-2.7-2.2-2.9-.2-.2-.3 0-.3.6zm-51 8.7c0 .2.8 1 1.8 1.7 1.5 1.3 1.6 1.2.3-.4s-2.1-2.1-2.1-1.3zm71.6 2.8c1 1.4 2.1 2.4 2.3 2.2.3-.3-.6-1.5-1.8-2.7l-2.4-2.2 1.9 2.7zm-68.6 1.5c0 .6.8 1.7 1.8 2.4 1.6 1.3 1.6 1.3.2-.6-.8-1.1-1.6-2.2-1.7-2.4-.2-.2-.3 0-.3.6zm7.4 11.9c.9.8 1.6 2 1.6 2.6 0 .6.3.9.6.6.8-.9-1.4-4.8-2.7-4.8-.6 0-.3.7.5 1.6zm75.1 8.8c1 1.4 1.9 2.6 2.2 2.6.7 0-1.7-3.9-2.8-4.6-.6-.3-.3.5.6 2zm-82.5 1.3c0 .5 1 1.8 2.3 2.9l2.2 1.9-2-2.5c-1.1-1.4-2.1-2.7-2.2-2.9-.2-.2-.3 0-.3.6zm70 0c0 .6.9 2.1 2.1 3.4l2 2.4-1.7-3c-2.4-3.9-2.4-4-2.4-2.8zm-51 8.7c0 .2.8 1 1.8 1.7 1.5 1.3 1.6 1.2.3-.4s-2.1-2.1-2.1-1.3zm71.6 2.8c1 1.4 2.1 2.4 2.3 2.2.3-.3-.6-1.5-1.8-2.7l-2.4-2.2 1.9 2.7zm-82.5 1.5c.7 1.2 1.5 2 1.8 1.7.3-.2-.3-1.2-1.3-2.2-1.7-1.6-1.8-1.6-.5.5zm70.1.5c.7 1.5 1.5 2.3 1.7 1.7.2-.6-.4-1.8-1.3-2.7-1.5-1.5-1.5-1.5-.4 1zm-56.2-.5c0 .6.8 1.7 1.8 2.4 1.6 1.3 1.6 1.3.2-.6-.8-1.1-1.6-2.2-1.7-2.4-.2-.2-.3 0-.3.6zm7.4 11.9c.9.8 1.6 2 1.6 2.6 0 .6.3.9.6.6.8-.9-1.4-4.8-2.7-4.8-.6 0-.3.7.5 1.6zm-12.8 1.7c.3 1 .9 1.5 1.2 1.2.3-.3 0-1.1-.7-1.8-1-.9-1.1-.8-.5.6zm87.5 6.4c.7 1.2 1.5 2 1.8 1.7.3-.2-.3-1.2-1.3-2.2-1.7-1.6-1.8-1.6-.5.5zm-11.1 4.7c0 .2.8 1 1.8 1.7 1.5 1.3 1.6 1.2.3-.4s-2.1-2.1-2.1-1.3zm19.6 8.8c1 1.4 2.1 2.4 2.3 2.2.3-.3-.6-1.5-1.8-2.7l-2.4-2.2 1.9 2.7zm-69.5.5c.7 1.2 1.5 2 1.8 1.7.3-.2-.3-1.2-1.3-2.2-1.7-1.6-1.8-1.6-.5.5zm8.1 12.7c.7.8 1.5 1.2 1.7 1.1.5-.6-1-2.5-2-2.5-.5 0-.4.6.3 1.4zm75.4 8.9c.3 1 .9 1.5 1.2 1.2.3-.3 0-1.1-.7-1.8-1-.9-1.1-.8-.5.6zm-12.6 2.4c0 .5 1 1.8 2.3 2.9l2.2 1.9-2-2.5c-1.1-1.4-2.1-2.7-2.2-2.9-.2-.2-.3 0-.3.6zm-51 7.7c0 .2.8 1 1.8 1.7 1.5 1.3 1.6 1.2.3-.4s-2.1-2.1-2.1-1.3zm71.6 2.8c1 1.4 2.1 2.4 2.3 2.2.3-.3-.6-1.5-1.8-2.7l-2.4-2.2 1.9 2.7zM333 545.3c0 .3 1.1 2.3 2.5 4.3s2.5 3.3 2.5 2.7c0-.5-1.1-2.4-2.5-4.3s-2.5-3.1-2.5-2.7zm77.6 12c.3 1 .9 1.5 1.2 1.2.3-.3 0-1.1-.7-1.8-1-.9-1.1-.8-.5.6zm-12.6 2.4c0 .6.8 1.7 1.8 2.4 1.6 1.3 1.6 1.3.2-.6-.8-1.1-1.6-2.2-1.7-2.4-.2-.2-.3 0-.3.6zm4 8c0 .6.8 1.7 1.8 2.4 1.6 1.3 1.6 1.3.2-.6-.8-1.1-1.6-2.2-1.7-2.4-.2-.2-.3 0-.3.6zm-52.9 3c.7 1.2 1.5 2 1.8 1.7.3-.2-.3-1.2-1.3-2.2-1.7-1.6-1.8-1.6-.5.5zm5.9 9.8c0 .4.9 1.8 2 3.2 1.1 1.4 2 2.2 2 1.8 0-.4-.9-1.8-2-3.2-1.1-1.4-2-2.2-2-1.8zm64.5 64c0 28.2.3 51.1.8 50.8.4-.2.7-23.1.7-50.8 0-27.7-.3-50.6-.7-50.8-.5-.3-.8 22.6-.8 50.8zM369 602.4c0 .2.8 1 1.8 1.7 1.5 1.3 1.6 1.2.3-.4s-2.1-2.1-2.1-1.3zm2.2 51.7c-.2 39.6-.1 42.8 1.6 44 1.5 1.2 1.6 1.2.5-.2-1-1.2-1.3-12.1-1.6-44l-.2-42.4-.3 42.6zm106 14c-.1 15.7-.5 28.9-.9 29.5-.5.5-.2.4.5-.1.9-.9 1.2-7.5.9-29.6l-.2-28.4-.3 28.6z"/><g stroke-width="0"><path d="M804.5 261c-.3.5-3.5 1-7 1s-7.6.5-9 1.2l-2.5 1.1v41.4l3.1.7c1.7.3 7.1.6 12 .6 7.4 0 9 .3 9.8 1.7.5 1.1.9 76.7 1 193.8l.1 192 2.8 2.2c2.6 2.2 3.5 2.3 21.4 2.3 18.2 0 18.7-.1 20.2-2.2 1.4-2 1.6-24.2 1.6-216.8 0-175.1-.2-214.9-1.3-216.4-1.2-1.6-3-1.8-16.9-1.7-9.9.1-15.9-.2-16.3-.9-.8-1.3-18.2-1.3-19 0zm68.2.8c-1.6 1.7-1.7 18.3-1.7 218.5 0 205.3.1 216.7 1.8 217.6 2.4 1.3 43.4 1.2 45-.1.9-.8 1.2-45.6 1.2-217.8 0-208.7-.1-216.8-1.8-218.3-2-1.9-9.7-2.3-10.7-.7-.4.6-6.5 1-15 1s-14.6-.4-15-1c-.9-1.5-2-1.2-3.8.8zm-832.4.9c-1 .3-1.3 5.7-1.3 21.9V306h12.3c6.7 0 12.8.4 13.5.9 1.1.6 1.3 36.7 1.5 194.7l.2 193.9 3.5 1.6c2.8 1.4 6.9 1.7 20.6 1.8 9.5.1 18.3-.3 19.8-.9l2.6-1-.2-217.2-.3-217.3-35.5-.2c-19.5-.1-36.1.1-36.7.4zm88.4 0c-.4.3-.7 98.1-.7 217.3 0 167.1.3 216.9 1.2 217.8 2 2 36.6 1.6 40.6-.4 2.9-1.4 3.5-1.4 6.6.1 2.9 1.4 6.5 1.6 23.4 1.3 15-.2 20.3-.6 21.6-1.7 1.5-1.3 1.6-13.5 1.6-161.8 0-88.2.2-160.9.5-161.4 1.2-1.9 3.2-.8 5.8 3.2 1.5 2.2 2.7 4.5 2.7 5s1.1 1.9 2.5 3.1c1.4 1.2 2.5 2.9 2.5 3.8 0 1 .9 2.9 2 4.3s2 3 2 3.6c0 .6.9 1.5 1.9 2.1 1.1.5 2.3 2.4 2.7 4.2.3 1.8 1.5 3.9 2.5 4.6 1.1.7 1.9 2 1.9 2.9 0 1.4 1.5 3.6 7 10.1 1.1 1.3 2 3 2 3.8 0 1.4 2.7 5.7 6.1 9.9.9 1.1 2 3.1 2.4 4.3.4 1.3 1.6 3.3 2.6 4.3s1.9 2.6 1.9 3.4c0 .8.5 1.5 1.1 1.5.5 0 1.6 1.5 2.4 3.3.7 1.8 2.3 4.1 3.4 5.1 1.2 1.1 2.1 2.5 2.1 3.3 0 1.3 2.7 5.7 6.1 9.8.9 1.1 2 3.1 2.4 4.3.4 1.3 1.6 3.3 2.6 4.3s1.9 2.6 1.9 3.4c0 .8.5 1.5 1.1 1.5.5 0 1.6 1.5 2.4 3.3.7 1.8 2.3 4.1 3.4 5.1 1.2 1.1 2.1 2.7 2.1 3.6 0 1 .9 2.9 2 4.3s2 2.9 2 3.4c0 .4.9 1.4 1.9 2 1.1.7 2.2 2.5 2.6 4.2.3 1.6 1.3 3.2 2.1 3.5.8.3 1.4 1.2 1.4 1.9 0 .8 1.1 2.6 2.5 4.1 1.4 1.5 2.5 3.3 2.5 4 0 .7 1.1 2.3 2.5 3.6 1.4 1.3 2.5 3 2.5 3.8 0 .7.9 2.5 2 3.9s2 3.1 2 3.7c0 .6.9 1.7 2 2.4s2 2 2 2.9c0 1.9 4.8 9.3 6.7 10.6.7.4 1.3 1.4 1.3 2.2 0 .7 1.1 2.6 2.4 4.2 1.3 1.5 3.1 4.4 4 6.3 2.1 4.8 3.8 7.2 5.9 8.8.9.7 1.7 2.1 1.7 3.1s.9 3 2 4.4c1.1 1.4 2 3 2 3.6 0 .6.8 1.5 1.9 2 1 .6 2.2 2.3 2.6 3.8.3 1.5 1.5 3.3 2.6 4.1 1 .7 1.9 1.9 1.9 2.6 0 .7 1 2.5 2.1 4 2.1 2.7 2.1 3.3 2 48.5-.2 37.7 0 46 1.2 46.9 1.9 1.6 37 1.5 41.7-.1 1.9-.6 3.8-1.6 4.2-2.2.4-.5.8-23.6.8-51.2 0-48.2-.1-50.3-1.9-52-1.1-1-2.2-3-2.6-4.5-.4-1.5-1.3-2.9-2-3.2-.8-.3-2.6-3-4.1-6.2-1.5-3.1-3.7-6.6-5-7.7-1.3-1.1-2.4-2.8-2.4-3.7 0-1-.9-2.9-2-4.3s-2-2.8-2-3.2c0-.4-1.1-2-2.5-3.7-1.4-1.6-2.5-3.5-2.5-4.3 0-.7-.6-1.5-1.3-1.8-.8-.3-2.6-3-4-6-1.5-3-3.8-6.6-5.2-8.1-1.4-1.5-2.5-3.5-2.5-4.5s-.9-2.6-2-3.6-2-2.3-2-3c0-.7-.9-2-2-3s-2-2.4-2-3.2c0-.7-1.1-2.3-2.5-3.4-1.3-1.2-2.7-3.4-3-5-.4-1.5-1.3-3.3-2.1-4-.8-.6-1.4-1.7-1.4-2.3 0-.7-1.1-2.3-2.5-3.6-1.4-1.3-2.5-3-2.5-3.8 0-.7-.9-2.5-2-3.9s-2-3.1-2-3.8c0-.7-.7-1.6-1.5-1.9-.9-.3-2.1-1.9-2.6-3.6-.6-1.6-1.5-3-2-3s-1.9-1.9-2.9-4.3c-1.1-2.3-2.8-5.4-3.8-6.8-4-6.1-6.9-10.9-8.4-13.9-.7-1.4-2.1-3.1-3-3.8-1-.7-1.8-2.1-1.8-3.1s-.9-2.6-2-3.6-2.9-3.7-4-6.1c-1.2-2.3-3.4-5.9-5.1-8-1.6-2-2.9-4.4-2.9-5.4 0-.9-.9-2.5-2-3.5s-2-2.4-2-3.2c0-.7-.5-1.3-1.1-1.3-.5 0-1.6-1.5-2.4-3.3-.7-1.8-2.3-4.1-3.4-5.1-1.2-1.1-2.1-2.6-2.1-3.3 0-.8-.9-2.6-2-4s-2-3.1-2-3.7c0-.6-.9-1.7-1.9-2.3-1.1-.7-2.2-2.5-2.6-4.1-.3-1.7-1.5-3.8-2.6-4.8-1-.9-1.9-2.3-1.9-3.1 0-.7-.5-1.3-1.1-1.3-.5 0-1.6-1.5-2.4-3.3-.7-1.8-2.3-4.1-3.4-5.1-1.2-1.1-2.1-2.6-2.1-3.3 0-.8-.9-2.6-2-4s-2-3.1-2-3.7c0-.6-.8-1.6-1.9-2.3-1-.6-2.1-2.4-2.5-3.8-.7-2.9-4.3-8.5-6.2-9.7-.7-.4-1.5-2-1.8-3.4-.4-1.5-1.8-3.6-3.2-4.6-1.3-1.1-2.4-2.8-2.4-3.8 0-.9-.7-2.3-1.5-3-.8-.7-1.5-1.9-1.5-2.6 0-.8-1.1-2.4-2.5-3.6-1.4-1.2-2.5-2.9-2.5-3.8 0-1-.9-2.9-2-4.3s-2-3-2-3.6c0-.6-.9-1.5-1.9-2.1-1.1-.5-2.2-2.3-2.6-3.9-.3-1.6-1.2-3.2-2-3.5-.8-.3-2.6-3-4.1-6.2-1.5-3.1-3.7-6.6-5-7.7-1.3-1.1-2.4-2.8-2.4-3.7 0-1-.9-2.9-2-4.3s-2-2.8-2-3.2c0-.4-1.1-2-2.5-3.7-1.4-1.6-2.5-3.5-2.5-4.3 0-.7-.7-1.5-1.5-1.9-.8-.3-2-1.6-2.6-2.9-1.7-3.7-6.3-4.7-21.8-4.7-11.2 0-14.7.3-16.6 1.6-2.1 1.4-2.6 1.4-5.4 0-2.4-1.3-6.7-1.6-21.9-1.6-10.4 0-19.2.3-19.5.7zm100.4 1c-.7 1.3-.3 2.4 1.5 4.6 1.3 1.6 2.4 3.6 2.4 4.6 0 1 .9 2.6 2 3.6s2 2.3 2 2.9c0 .6.9 1.7 2 2.4s2 2 2 3.1c0 1 .9 2.6 2 3.6s2.9 3.8 4.1 6.2c1.2 2.4 3.2 5.7 4.5 7.2 1.2 1.5 2.6 3.9 2.9 5.3.4 1.5 1.5 3.4 2.6 4.4 1 .9 1.9 2.3 1.9 3.1 0 .7.5 1.3 1.1 1.3.5 0 1.6 1.5 2.4 3.3.8 1.9 2 3.9 2.8 4.6.8.6 2.8 3.8 4.3 6.9 1.6 3.1 3.6 6.3 4.5 6.9.9.7 2 2.4 2.3 3.9.7 2.7 4.5 8.6 5.9 9.3.5.2 1.7 2.2 2.8 4.5 2.2 4.8 3.5 7 6.7 10.9 1.2 1.6 2.2 3.4 2.2 4 0 .7.8 1.7 1.9 2.4 1 .6 2.1 2.4 2.5 3.8.7 2.7 3.7 7.4 6.9 10.7.9 1 1.7 2.6 1.7 3.6 0 1.1.9 2.7 2 3.7s2 2.2 2 2.8c0 .5 1.1 2.2 2.5 3.9 1.4 1.6 2.5 3.5 2.5 4.1 0 .7.9 1.8 2 2.5s2 2 2 2.9c0 1.8 4.2 8.4 7.3 11.5.9 1 1.7 2.6 1.7 3.6 0 1.1.9 2.7 2 3.7s2 2.3 2 3c0 .7.9 2 2 3s2 2.4 2 3.2c0 .7 1.1 2.3 2.5 3.5 1.4 1.2 2.5 2.8 2.5 3.7 0 1.7 4.8 9.2 6.7 10.4.6.4 1.4 2 1.8 3.6.3 1.6 1.5 3.7 2.6 4.7 1 .9 1.9 2.2 1.9 2.9 0 .7.9 2 2 3s2 2.4 2 3.2c0 .7 1.1 2.3 2.5 3.5 1.4 1.2 2.5 2.9 2.5 3.8 0 1 .9 2.9 2 4.3s2 3 2 3.6c0 .6.9 1.5 1.9 2.1 1.1.5 2.2 2.3 2.6 3.9.3 1.6 1.5 3.7 2.6 4.7 1 .9 1.9 2.2 1.9 2.9 0 .7.9 2 2 3s2 2.4 2 3.2c0 .7 1.1 2.3 2.5 3.5 1.4 1.2 2.5 2.9 2.5 3.8 0 1 .9 2.9 2 4.3s2 3 2 3.6c0 .6.9 1.5 1.9 2.1 1.1.5 2.2 2.3 2.6 3.9.3 1.6 1.5 3.7 2.6 4.7 1 .9 1.9 2.2 1.9 2.9 0 .7.9 2 2 3s2 2.4 2 3.2c0 .7 1.1 2.3 2.5 3.5 1.4 1.2 2.5 2.9 2.5 3.7 0 .9.9 2.7 2 4.1 1.1 1.4 2 3 2 3.6 0 .7 1.1 1.9 2.5 2.8 1.4.9 2.5 2.3 2.5 3.1 0 2 1.6 1.9 2.4-.1.9-2.3.7-297.7-.2-299.1-1.7-2.6-6.9-3.3-25.2-3.3-10.4 0-19.6.3-20.5.6-1.5.6-1.6 6.6-1.4 68.6.1 51.4-.2 68.3-1.1 69.1-.9.9-1.9.4-4.2-2.3-2.7-3.2-4.2-5.6-8-13-.7-1.4-2.1-3.1-3-3.8-1-.7-1.8-2.1-1.8-3.1s-.9-3-2-4.4c-1.1-1.4-2-3-2-3.6 0-.6-.8-1.5-1.9-2-1-.6-2.2-2.2-2.5-3.5-.3-1.4-1.7-3.6-3.1-5-1.4-1.4-2.5-3.2-2.5-4.1 0-.8-.7-2.3-1.5-3.3-4.2-4.7-6.5-8.1-6.5-9.6 0-.9-.9-2.4-2-3.3-1.1-1-2-2.5-2-3.5 0-.9-.9-2.2-2-2.8-1.1-.6-2-1.8-2-2.6s-1.1-2.5-2.4-3.7c-1.4-1.3-2.8-3.5-3.1-5-.4-1.4-1.3-3.1-2.1-3.8-.8-.6-1.4-1.7-1.4-2.3 0-.7-1.1-2.3-2.5-3.6-1.4-1.3-2.5-3.1-2.5-4 0-1-.9-2.9-2-4.3s-2-2.9-2-3.4c0-.4-.9-1.4-2-2.1-1.1-.7-2-1.9-2-2.6 0-.8-1.1-2.8-2.5-4.4-1.3-1.6-2.9-4-3.5-5.3-1.8-4-3.6-6.9-5.9-9.3-1.1-1.2-2.1-2.9-2.1-3.6 0-2.4-5.2-9-7.1-9-1 0-2.1-.5-2.4-1-.4-.6-9.7-1-24.5-1-21.5 0-24 .2-24.9 1.7zm204.5.4-2.6 2v428.8l3 2.1c2.8 2 4.1 2.1 22 1.9 13-.1 19.2-.5 19.7-1.3 1.1-1.7.3-431.8-.8-433.9-.9-1.5-2.9-1.7-19.8-1.7-17.5 0-19 .1-21.5 2.1z"/><path d="M236.7 416.7c-.4.3-.7 63.3-.7 139.8 0 133.9.1 139.3 1.8 140.9 1.6 1.4 4.4 1.6 20.4 1.5 17.1-.1 18.8-.2 20.7-2l2.2-2-.3-105.8c-.3-103.8-.3-105.7-2.3-108.6-1.1-1.5-3.3-5.1-4.9-7.9-1.6-2.8-3.9-6.4-5.2-7.9-1.3-1.6-2.4-3.6-2.4-4.6 0-1-.9-2.6-2-3.6s-2-2.4-2-3.2c0-.7-.5-1.3-1.1-1.3-.5 0-1.6-1.5-2.4-3.3-.8-1.9-2-3.9-2.8-4.6-.8-.6-2.8-3.8-4.3-6.9-1.6-3.1-3.6-6.3-4.6-7-.9-.6-1.9-2.5-2.3-4.1-.3-1.6-1.3-3.5-2.2-4.2-.8-.7-1.9-2.3-2.4-3.6-.9-2.3-2-2.9-3.2-1.6z"/></g><path fill="#363" d="M784.4 282c0 10.2.2 14.3.3 9.2.2-5 .2-13.4 0-18.5-.1-5-.3-.9-.3 9.3z"/><path fill="#093" d="M784.1 304.6c0 1.1.3 1.4.6.6.3-.7.2-1.6-.1-1.9-.3-.4-.6.2-.5 1.3z"/></svg>